<?xml version="1.0" encoding="UTF-8"?>
<svg version="1.1" xmlns="http://www.w3.org/2000/svg" width="500" height="500">
<path d="M0 0 C165 0 330 0 500 0 C500 165 500 330 500 500 C335 500 170 500 0 500 C0 335 0 170 0 0 Z " fill="#FEFEFE" transform="translate(0,0)"/>
<path d="M0 0 C1.8272911 2.74093665 2.93698178 5.13825324 4.125 8.1875 C4.47820312 9.08855469 4.83140625 9.98960938 5.1953125 10.91796875 C5.59363281 11.94857422 5.59363281 11.94857422 6 13 C8.2477975 10.94766315 9.0022242 9.99332739 10 7 C10.66 7 11.32 7 12 7 C12.33 6.01 12.66 5.02 13 4 C13 4.99 13 5.98 13 7 C13.66 7 14.32 7 15 7 C16 10 16 10 16 12 C16.99 12.495 16.99 12.495 18 13 C17.835 13.763125 17.67 14.52625 17.5 15.3125 C16.90854604 18.03596236 16.90854604 18.03596236 17 21 C16.34561559 23.00405227 15.67939174 25.00428677 15 27 C15 27.66 15 28.32 15 29 C15.64839844 28.81050781 16.29679687 28.62101562 16.96484375 28.42578125 C21.02619965 27.85604149 24.5503423 28.47461018 28.5625 29.1875 C29.31724609 29.30158203 30.07199219 29.41566406 30.84960938 29.53320312 C35.42103021 30.32665679 38.0204047 31.1826405 41 35 C36.29391884 35.67229731 31.86342064 36.04454745 27.09765625 35.96875 C23.37235849 36.02424792 19.69122941 36.5215073 16 37 C16 37.66 16 38.32 16 39 C16.61875 39.20625 17.2375 39.4125 17.875 39.625 C20 41 20 41 20.875 43.6875 C22.18017098 47.53050345 24.04339719 49.64033236 26.7578125 52.58203125 C28 54 28 54 28 55 C28.8521106 55.05160278 28.8521106 55.05160278 29.72143555 55.10424805 C47.27220402 56.24851628 62.33567133 58.75434514 75.078125 72.19140625 C77.99352968 74.93496797 81.15670431 75.08842981 85 75 C87.28945042 74.5964494 89.51258067 74.05931145 91.765625 73.48828125 C97.11924801 72.31834615 102.02808824 72.51404412 107 75 C106.9375 76.8125 106.9375 76.8125 106 79 C103.62814217 80.20918242 101.48885678 81.13453334 99 82 C97.4840625 82.5878125 97.4840625 82.5878125 95.9375 83.1875 C92.82829357 84.04749327 90.21009108 84.15286148 87 84 C87.85712666 89.23042061 89.85821418 93.85728899 91.84375 98.74609375 C94.36263181 105.8347037 94 111.10824664 94 119 C55.39 119 16.78 119 -23 119 C-23 112.46667685 -22.73136363 107.64316922 -21.0625 101.5625 C-20.88009766 100.85673828 -20.69769531 100.15097656 -20.50976562 99.42382812 C-19.17942027 94.35884054 -19.17942027 94.35884054 -18 92 C-19.0725 92.61875 -20.145 93.2375 -21.25 93.875 C-23.20380885 95.00219741 -25.02106139 96.00802339 -27.1328125 96.8125 C-29.79190418 98.5036378 -29.92597934 100.10152508 -30.625 103.125 C-30.86089844 104.10855469 -31.09679687 105.09210938 -31.33984375 106.10546875 C-31.55769531 107.06066406 -31.77554688 108.01585937 -32 109 C-32.39377561 110.47971579 -32.78932498 111.95896197 -33.1875 113.4375 C-34.14824022 117.04097987 -34.14824022 117.04097987 -34 121 C-25.42332072 125.25577748 -18.41245787 126.71603048 -8.88769531 126.56762695 C-7.63748596 126.56835709 -6.38727661 126.56908722 -5.09918213 126.56983948 C-1.71095405 126.56697762 1.67570092 126.54211771 5.06365108 126.50696969 C8.61898485 126.47545328 12.17434545 126.47275575 15.72979736 126.46684265 C22.44446307 126.45137768 29.1587158 126.41045048 35.87320065 126.3600952 C43.52502806 126.30397099 51.17687645 126.27665761 58.82885885 126.25161803 C74.55281072 126.19952666 90.27635185 126.11172977 106 126 C106 127.32 106 128.64 106 130 C104.49365594 131.50634406 103.08721579 131.26664091 100.98242188 131.43310547 C100.11787888 131.50353058 99.25333588 131.57395569 98.3625946 131.64651489 C97.40762589 131.71933685 96.45265717 131.79215881 95.46875 131.8671875 C94.46983231 131.94653534 93.47091461 132.02588318 92.44172668 132.1076355 C89.12820684 132.36870619 85.81416289 132.62223213 82.5 132.875 C81.37395355 132.96237427 80.2479071 133.04974854 79.08773804 133.13977051 C54.4098319 135.05272896 29.71057962 136.58039691 5 138 C13.54159058 138.95052358 22.07119601 139.24848111 30.65537643 139.44555664 C33.07947989 139.50128845 35.50343301 139.56162876 37.92739868 139.62304688 C43.07650453 139.75270698 48.22573829 139.87670765 53.375 140 C59.34384623 140.14313043 65.3126164 140.28869556 71.28126907 140.43969727 C73.64557541 140.49837776 76.00995121 140.55301481 78.37435913 140.60742188 C85.05009111 140.76795584 91.725334 140.97538607 98.39306641 141.34375 C99.40881744 141.39724609 100.42456848 141.45074219 101.47109985 141.50585938 C104.33028802 142.06453743 105.3515002 142.61711519 107 145 C106.875 148.0625 106.875 148.0625 106 151 C102.89204953 153.07196698 101.96080522 153.28456609 98.39379883 153.47070312 C97.45623245 153.52415894 96.51866608 153.57761475 95.5526886 153.63269043 C94.53112167 153.68171509 93.50955475 153.73073975 92.45703125 153.78125 C90.84594734 153.86977234 90.84594734 153.86977234 89.20231628 153.96008301 C85.73944141 154.14861518 82.27606803 154.32470893 78.8125 154.5 C75.47124408 154.67697175 72.13013581 154.85655886 68.78903198 155.03637695 C66.51787037 155.15839745 64.24664954 155.27932066 61.97537231 155.39916992 C47.64397435 156.16216137 33.32223493 157.08316404 19 158 C19.81717499 158.03536362 20.63434998 158.07072723 21.47628784 158.10716248 C29.2139915 158.44251693 36.95156953 158.78058967 44.68902397 159.12164211 C48.66599241 159.29684534 52.6429997 159.47103296 56.62011719 159.64282227 C60.46519996 159.80894714 64.31015243 159.97784074 68.15503311 160.14857674 C69.6148366 160.21292834 71.07468289 160.27631721 72.5345726 160.33868217 C77.02479617 160.53087531 81.5125212 160.75017196 86 161 C87.54545502 161.08122604 87.54545502 161.08122604 89.12213135 161.16409302 C90.02300476 161.22861664 90.92387817 161.29314026 91.85205078 161.35961914 C92.61591095 161.41082413 93.37977112 161.46202911 94.16677856 161.51478577 C96 162 96 162 98 165 C97.55555556 170.44444444 97.55555556 170.44444444 95 173 C92.24048134 173.36469881 89.55983677 173.60960091 86.78662109 173.77783203 C85.9377684 173.83664551 85.08891571 173.89545898 84.21434021 173.95605469 C81.40122319 174.14876284 78.58742595 174.32831706 75.7734375 174.5078125 C73.82568008 174.63866868 71.8779774 174.77034192 69.93032837 174.90280151 C64.79832976 175.24961507 59.66566044 175.58529222 54.53277588 175.91870117 C49.29744442 176.26072758 44.06281892 176.61321791 38.828125 176.96484375 C28.55274928 177.65350618 18.27663511 178.33041268 8 179 C8.61370956 179.02283554 9.22741913 179.04567108 9.85972595 179.06919861 C16.33422019 179.31046995 22.80861402 179.55431691 29.28295898 179.79956055 C31.68885937 179.89037047 34.09478341 179.98055618 36.50073242 180.07006836 C44.33462846 180.36178198 52.16756022 180.67153627 60 181 C61.38218719 181.05550018 61.38218719 181.05550018 62.79229736 181.11212158 C65.19677948 181.21167725 67.60025078 181.32376788 70.00390625 181.44140625 C71.30271729 181.50142822 72.60152832 181.5614502 73.93969727 181.62329102 C77 182 77 182 80 184 C79.125 188.875 79.125 188.875 78 190 C75.42309595 190.37036277 72.86630598 190.67284178 70.27734375 190.93359375 C69.44532944 191.01910995 68.61331512 191.10462616 67.75608826 191.19273376 C55.04971254 192.44630223 42.30087393 193.21488193 29.5625 194.0625 C24.43851598 194.40346576 19.31487743 194.74907845 14.19140625 195.09765625 C13.02485001 195.17371597 11.85829376 195.2497757 10.65638733 195.32814026 C9.57683273 195.40169235 8.49727814 195.47524445 7.38500977 195.55102539 C5.96539696 195.64523521 5.96539696 195.64523521 4.5171051 195.74134827 C-0.18511269 196.11494753 -0.18511269 196.11494753 -3.6328125 198.99609375 C-4.12523437 199.80175781 -4.61765625 200.60742188 -5.125 201.4375 C-6.65797246 203.91170166 -7.93721412 205.93721412 -10 208 C-27.04247507 208.29383578 -43.83302117 195.38973592 -55.68359375 184.35717773 C-68.91080634 171.53671952 -80.46436459 153.19980249 -82.8125 134.625 C-81.89082792 130.51292457 -81.36836376 130.0733518 -78.0625 127.75 C-76.39704841 126.79385931 -74.70869631 125.87652208 -73 125 C-71.90365234 124.4121875 -71.90365234 124.4121875 -70.78515625 123.8125 C-66.64118488 121.7742356 -63.47603828 120.96780063 -58.875 120.75 C-50.34532109 119.49705281 -44.86391617 111.15513334 -39.62084961 104.92041016 C-38.25176723 103.29829809 -36.82512855 101.72502739 -35.38671875 100.1640625 C-32.09365267 95.79845935 -29.95474024 91.08269865 -27.6875 86.125 C-27.23310547 85.15046875 -26.77871094 84.1759375 -26.31054688 83.171875 C-25.19894497 80.78485618 -24.0957292 78.39433576 -23 76 C-26.40297337 76.82115227 -29.68604223 77.87024167 -33 79 C-30.18588193 74.53270366 -27.13961976 73.75773605 -22.27734375 72.22265625 C-19.7607563 71.15415215 -19.7607563 71.15415215 -18.69140625 68.37109375 C-18.46324219 67.58863281 -18.23507813 66.80617188 -18 66 C-19.65 65.34 -21.3 64.68 -23 64 C-21.74523029 60.23569087 -20.30577382 59.94955892 -17 58 C-17 57.34 -17 56.68 -17 56 C-16.01 55.01 -16.01 55.01 -15 54 C-14.28591666 52.01643517 -13.61382258 50.01684563 -13 48 C-13.33 47.67 -13.66 47.34 -14 47 C-14.33 46.34 -14.66 45.68 -15 45 C-15.99 45.66 -16.98 46.32 -18 47 C-18.66 47 -19.32 47 -20 47 C-21.37310707 48.29233607 -22.71034824 49.62437146 -24 51 C-24.99 50.505 -24.99 50.505 -26 50 C-26.33 50.99 -26.66 51.98 -27 53 C-27.66 53 -28.32 53 -29 53 C-29.495 53.825 -29.99 54.65 -30.5 55.5 C-30.995 56.325 -31.49 57.15 -32 58 C-32.66 58 -33.32 58 -34 58 C-34.33 58.99 -34.66 59.98 -35 61 C-35.6875 59.2421875 -35.6875 59.2421875 -36 57 C-34.8125 55.0703125 -34.8125 55.0703125 -33 53.125 C-32.35933594 52.43664062 -31.71867187 51.74828125 -31.05859375 51.0390625 C-28.16873985 48.17662657 -25.1508884 45.5721538 -22 43 C-24.475 43.495 -24.475 43.495 -27 44 C-25.5361389 39.60841671 -23.02168662 39.12052567 -19 37 C-23.62 37.66 -28.24 38.32 -33 39 C-33 37.35 -33 35.7 -33 34 C-28.20214173 31.15406543 -24.79072855 30.68884904 -19.25 30.875 C-14.45833481 31.246986 -14.45833481 31.246986 -10 30 C-10.66 29.67 -11.32 29.34 -12 29 C-12 28.34 -12 27.68 -12 27 C-13.98 26.67 -15.96 26.34 -18 26 C-18 25.34 -18 24.68 -18 24 C-19.1446875 23.5978125 -19.1446875 23.5978125 -20.3125 23.1875 C-22.88988618 22.04865495 -24.26954864 21.18583329 -26 19 C-26 18.34 -26 17.68 -26 17 C-20.00412122 15.32723672 -15.44122008 17.36133605 -10 20 C-8.0857957 21.54006437 -6.63979039 23.15523581 -5 25 C-4.01 25 -3.02 25 -2 25 C-2.474375 24.566875 -2.94875 24.13375 -3.4375 23.6875 C-5 22 -5 22 -6 19 C-6.66 18.67 -7.32 18.34 -8 18 C-8 17.01 -8 16.02 -8 15 C-8.66 15 -9.32 15 -10 15 C-10.4125 14.13375 -10.825 13.2675 -11.25 12.375 C-12.97832149 9.04180856 -14.87076408 6.08372099 -17 3 C-12.12114941 3.41818719 -10.22040297 5.44929929 -7 9 C-5.9171875 10.051875 -5.9171875 10.051875 -4.8125 11.125 C-3 13 -3 13 -1 16 C-0.30840599 14.15274948 -0.30840599 14.15274948 0 12 C-0.99 10.515 -0.99 10.515 -2 9 C-1.46808511 2.93617021 -1.46808511 2.93617021 0 0 Z " fill="#1E6022" transform="translate(238,105)"/>
<path d="M0 0 C0.66 0 1.32 0 2 0 C2.680625 1.7015625 2.680625 1.7015625 3.375 3.4375 C4.57095806 7.04721692 4.57095806 7.04721692 7 8 C7.33 7.34 7.66 6.68 8 6 C8.2475 6.928125 8.495 7.85625 8.75 8.8125 C10.09818968 12.25038368 11.04652118 12.99925628 14 15 C14.495 16.485 14.495 16.485 15 18 C15 16.68 15 15.36 15 14 C15 13.34 15 12.68 15 12 C30.01889388 11.44602441 44.8473486 13.00137856 56.6953125 23.35546875 C57.95988281 24.57169922 57.95988281 24.57169922 59.25 25.8125 C63.11299472 29.52959978 63.11299472 29.52959978 68.0625 31.1875 C71.84521197 31.00737086 75.11486688 30.4135596 78.765625 29.48828125 C84.11924801 28.31834615 89.02808824 28.51404412 94 31 C93.9375 32.8125 93.9375 32.8125 93 35 C90.62814217 36.20918242 88.48885678 37.13453334 86 38 C84.989375 38.391875 83.97875 38.78375 82.9375 39.1875 C79.82829357 40.04749327 77.21009108 40.15286148 74 40 C74.85712666 45.23042061 76.85821418 49.85728899 78.84375 54.74609375 C81.36263181 61.8347037 81 67.10824664 81 75 C42.39 75 3.78 75 -36 75 C-36 68.46667685 -35.73136363 63.64316922 -34.0625 57.5625 C-33.88009766 56.85673828 -33.69769531 56.15097656 -33.50976562 55.42382812 C-32.17942027 50.35884054 -32.17942027 50.35884054 -31 48 C-31.66 47.67 -32.32 47.34 -33 47 C-32.030625 46.7525 -31.06125 46.505 -30.0625 46.25 C-25.50589822 44.96145278 -21.28158597 43.00001521 -17 41 C-17.67883043 44.11547441 -18.74106902 46.85137721 -20.0625 49.75 C-20.42472656 50.54921875 -20.78695312 51.3484375 -21.16015625 52.171875 C-21.43730469 52.77515625 -21.71445313 53.3784375 -22 54 C-21.01 54 -20.02 54 -19 54 C-16.92312991 51.54226908 -16.92312991 51.54226908 -14.9375 48.5 C-13.67216243 46.63380381 -12.36952266 44.79113792 -11 43 C-10.34 43 -9.68 43 -9 43 C-8.29925156 46.153368 -8 48.72724974 -8 52 C-7.34 52 -6.68 52 -6 52 C-5.67 53.32 -5.34 54.64 -5 56 C-4.67 53.03 -4.34 50.06 -4 47 C-1.48916886 48.25541557 -1.12874554 49.50063488 0 52 C0.33 52 0.66 52 1 52 C1.15018433 45.8424423 0.27503497 40.01087914 -1 34 C1.475 33.505 1.475 33.505 4 33 C4.33 33.66 4.66 34.32 5 35 C7.34386809 35.91031272 7.34386809 35.91031272 10.0625 36.625 C10.98160156 36.88539063 11.90070313 37.14578125 12.84765625 37.4140625 C13.55792969 37.60742188 14.26820313 37.80078125 15 38 C15.33 37.67 15.66 37.34 16 37 C13.31158141 34.74754119 11.35358125 33.11786042 8 32 C8 31.34 8 30.68 8 30 C5.36 29.67 2.72 29.34 0 29 C1.375 26.5 1.375 26.5 3 24 C3.66 24 4.32 24 5 24 C5 23.34 5 22.68 5 22 C6.32 22 7.64 22 9 22 C7.94646269 15.02031533 4.98516087 10.88525229 0.58203125 5.41796875 C-0.20107422 4.22107422 -0.20107422 4.22107422 -1 3 C-0.67 2.01 -0.34 1.02 0 0 Z " fill="#F7AA3A" transform="translate(251,149)"/>
<path d="M0 0 C0.89076485 0.00085602 1.78152969 0.00171204 2.69928741 0.00259399 C13.77871206 0.01402829 24.85810589 0.0341679 35.9375 0.0625 C35.9375 1.3825 35.9375 2.7025 35.9375 4.0625 C34.43115594 5.56884406 33.02471579 5.32914091 30.91992188 5.49560547 C30.05537888 5.56603058 29.19083588 5.63645569 28.3000946 5.70901489 C26.86764153 5.81824783 26.86764153 5.81824783 25.40625 5.9296875 C24.40733231 6.00903534 23.40841461 6.08838318 22.37922668 6.1701355 C19.06570684 6.43120619 15.75166289 6.68473213 12.4375 6.9375 C10.74843033 7.0685614 10.74843033 7.0685614 9.02523804 7.20227051 C-15.6526681 9.11522896 -40.35192038 10.64289691 -65.0625 12.0625 C-56.52090942 13.01302358 -47.99130399 13.31098111 -39.40712357 13.50805664 C-36.98302011 13.56378845 -34.55906699 13.62412876 -32.13510132 13.68554688 C-26.98599547 13.81520698 -21.83676171 13.93920765 -16.6875 14.0625 C-10.71865377 14.20563043 -4.7498836 14.35119556 1.21876907 14.50219727 C3.58307541 14.56087776 5.94745121 14.61551481 8.31185913 14.66992188 C14.98759111 14.83045584 21.662834 15.03788607 28.33056641 15.40625 C29.85419296 15.48649414 29.85419296 15.48649414 31.40859985 15.56835938 C34.26778802 16.12703743 35.2890002 16.67961519 36.9375 19.0625 C36.8125 22.125 36.8125 22.125 35.9375 25.0625 C32.82954953 27.13446698 31.89830522 27.34706609 28.33129883 27.53320312 C27.39373245 27.58665894 26.45616608 27.64011475 25.4901886 27.69519043 C24.46862167 27.74421509 23.44705475 27.79323975 22.39453125 27.84375 C21.32047531 27.90276489 20.24641937 27.96177979 19.13981628 28.02258301 C15.67694141 28.21111518 12.21356803 28.38720893 8.75 28.5625 C5.40874408 28.73947175 2.06763581 28.91905886 -1.27346802 29.09887695 C-3.54462963 29.22089745 -5.81585046 29.34182066 -8.08712769 29.46166992 C-22.41852565 30.22466137 -36.74026507 31.14566404 -51.0625 32.0625 C-50.24532501 32.09786362 -49.42815002 32.13322723 -48.58621216 32.16966248 C-40.8485085 32.50501693 -33.11093047 32.84308967 -25.37347603 33.18414211 C-21.39650759 33.35934534 -17.4195003 33.53353296 -13.44238281 33.70532227 C-9.59730004 33.87144714 -5.75234757 34.04034074 -1.90746689 34.21107674 C-0.4476634 34.27542834 1.01218289 34.33881721 2.4720726 34.40118217 C6.96229617 34.59337531 11.4500212 34.81267196 15.9375 35.0625 C16.96780334 35.1166507 17.99810669 35.17080139 19.05963135 35.22659302 C19.96050476 35.29111664 20.86137817 35.35564026 21.78955078 35.42211914 C22.55341095 35.47332413 23.31727112 35.52452911 24.10427856 35.57728577 C25.9375 36.0625 25.9375 36.0625 27.9375 39.0625 C27.49305556 44.50694444 27.49305556 44.50694444 24.9375 47.0625 C22.17798134 47.42719881 19.49733677 47.67210091 16.72412109 47.84033203 C15.45084206 47.92855225 15.45084206 47.92855225 14.15184021 48.01855469 C11.33872319 48.21126284 8.52492595 48.39081706 5.7109375 48.5703125 C3.76318008 48.70116868 1.8154774 48.83284192 -0.13217163 48.96530151 C-5.26417024 49.31211507 -10.39683956 49.64779222 -15.52972412 49.98120117 C-20.76505558 50.32322758 -25.99968108 50.67571791 -31.234375 51.02734375 C-41.50975072 51.71600618 -51.78586489 52.39291268 -62.0625 53.0625 C-61.44879044 53.08533554 -60.83508087 53.10817108 -60.20277405 53.13169861 C-53.72827981 53.37296995 -47.25388598 53.61681691 -40.77954102 53.86206055 C-38.37364063 53.95287047 -35.96771659 54.04305618 -33.56176758 54.13256836 C-25.72787154 54.42428198 -17.89493978 54.73403627 -10.0625 55.0625 C-8.68031281 55.11800018 -8.68031281 55.11800018 -7.27020264 55.17462158 C-4.86572052 55.27417725 -2.46224922 55.38626788 -0.05859375 55.50390625 C1.24021729 55.56392822 2.53902832 55.6239502 3.87719727 55.68579102 C6.9375 56.0625 6.9375 56.0625 9.9375 58.0625 C9.0625 62.9375 9.0625 62.9375 7.9375 64.0625 C5.39684611 64.43299975 2.87734624 64.73365089 0.32421875 64.9921875 C-0.50419022 65.07749725 -1.33259918 65.16280701 -2.18611145 65.2507019 C-14.82569158 66.49420871 -27.50792715 67.2399257 -40.18084717 68.05407715 C-43.67478269 68.27937266 -47.16843108 68.50903743 -50.66210938 68.73828125 C-57.46197214 69.18384637 -64.26212973 69.62475039 -71.0625 70.0625 C-70.56218196 67.4816141 -70.03574539 64.96948267 -69.30859375 62.44140625 C-65.08994566 47.74746775 -66.36700222 34.01599556 -73.1875 20.375 C-77.75752223 12.30000309 -83.88542015 6.77879111 -91.0625 1.0625 C-60.70540889 0.20775489 -30.36710402 -0.02938989 0 0 Z " fill="#02B5DC" transform="translate(308.0625,230.9375)"/>
<path d="M0 0 C0.89076485 0.00085602 1.78152969 0.00171204 2.69928741 0.00259399 C13.77871206 0.01402829 24.85810589 0.0341679 35.9375 0.0625 C35.9375 1.3825 35.9375 2.7025 35.9375 4.0625 C34.43115594 5.56884406 33.02471579 5.32914091 30.91992188 5.49560547 C30.05531342 5.56603561 29.19070496 5.63646576 28.29989624 5.70903015 C27.34499298 5.78184708 26.39008972 5.854664 25.40625 5.9296875 C23.90875717 6.04864128 23.90875717 6.04864128 22.38101196 6.16999817 C19.06689733 6.43111842 15.75225784 6.68468449 12.4375 6.9375 C11.30713318 7.0252066 10.17676636 7.11291321 9.012146 7.20327759 C-10.34026408 8.70336798 -29.70301386 9.97649468 -49.08007812 11.11083984 C-50.53634613 11.19648445 -50.53634613 11.19648445 -52.02203369 11.28385925 C-53.88495584 11.39213174 -55.74803205 11.49779265 -57.61126709 11.60054016 C-61.4742149 11.81876486 -65.31751517 12.06426466 -69.16308594 12.49536133 C-70.3184082 12.62064209 -71.47373047 12.74592285 -72.6640625 12.875 C-73.61877441 12.99875 -74.57348633 13.1225 -75.55712891 13.25 C-78.91023047 12.99905652 -80.20500573 11.69630841 -82.5625 9.375 C-83.1296875 8.66988281 -83.696875 7.96476563 -84.28125 7.23828125 C-86.29712355 4.77590939 -88.55979806 3.01549768 -91.0625 1.0625 C-60.70540889 0.20775489 -30.36710402 -0.02938989 0 0 Z " fill="#01A8D5" transform="translate(308.0625,230.9375)"/>
<path d="M0 0 C7.54159177 0.45233953 13.60959458 2.50107179 20.5625 5.375 C22.54281267 6.1748657 24.52327857 6.97435215 26.50390625 7.7734375 C31.85536157 9.94051016 31.85536157 9.94051016 34.35058594 10.96679688 C39.65503066 13.07677072 42.47838285 13.06870009 48 12 C54.58632961 10.7650632 60.79064206 9.89532103 67 13 C66.9375 14.8125 66.9375 14.8125 66 17 C63.62893074 18.20878041 61.4869172 19.13163428 59 20 C58.030625 20.391875 57.06125 20.78375 56.0625 21.1875 C52.2201813 22.20689067 48.96736611 22.13680573 45 22 C44.773125 22.78375 44.54625 23.5675 44.3125 24.375 C43.20086384 27.44523319 42.00338883 30.35638612 40.625 33.3125 C40.22539062 34.17488281 39.82578125 35.03726563 39.4140625 35.92578125 C38 38 38 38 35.8359375 38.79296875 C34.92714844 38.89544922 34.92714844 38.89544922 34 39 C33.94392578 37.84371094 33.94392578 37.84371094 33.88671875 36.6640625 C33.82097656 35.66117188 33.75523437 34.65828125 33.6875 33.625 C33.62949219 32.62726563 33.57148438 31.62953125 33.51171875 30.6015625 C33.25841797 29.31378906 33.25841797 29.31378906 33 28 C29.92308234 25.94872156 29.06355001 25.72739128 25.55078125 25.5859375 C24.70322266 25.54726562 23.85566406 25.50859375 22.98242188 25.46875 C22.10134766 25.4378125 21.22027344 25.406875 20.3125 25.375 C19.41982422 25.33632812 18.52714844 25.29765625 17.60742188 25.2578125 C15.4051538 25.16359782 13.20289278 25.07798412 11 25 C10.67 26.32 10.34 27.64 10 29 C6.63797061 27.57390841 4.76324421 25.85651485 2.4375 23.0625 C-0.03190133 20.11693957 -0.03190133 20.11693957 -2.71484375 17.37109375 C-4 16 -4 16 -4 14 C-1.03 14.99 1.94 15.98 5 17 C5 15.35 5 13.7 5 12 C7.88455894 12.41207985 8.87014892 12.85716381 10.875 15.0625 C12.90989111 17.30497354 12.90989111 17.30497354 16.125 17.3125 C18.93939173 17.17528074 18.93939173 17.17528074 21 16 C15.10770151 11.1046308 9.03483668 7.15009192 2.30859375 3.48046875 C1.54675781 2.99191406 0.78492188 2.50335938 0 2 C0 1.34 0 0.68 0 0 Z " fill="#070503" transform="translate(278,167)"/>
<path d="M0 0 C1.33654158 0.32022727 2.66924647 0.65651211 4 1 C5.64984982 1.13353413 7.30353609 1.22322486 8.95776367 1.28125 C10.436623 1.33635742 10.436623 1.33635742 11.94535828 1.39257812 C13.54055046 1.44575195 13.54055046 1.44575195 15.16796875 1.5 C16.83029289 1.5609082 16.83029289 1.5609082 18.52619934 1.62304688 C22.07983534 1.75269896 25.63363848 1.87669736 29.1875 2 C38.12568723 2.31624296 47.06334623 2.64283029 56 3 C57.37578217 3.05389893 57.37578217 3.05389893 58.77935791 3.10888672 C61.18299876 3.20750695 63.58553139 3.31936251 65.98828125 3.4375 C67.93988159 3.52837891 67.93988159 3.52837891 69.9309082 3.62109375 C73 4 73 4 76 6 C75.125 10.875 75.125 10.875 74 12 C71.45934611 12.37049975 68.93984624 12.67115089 66.38671875 12.9296875 C65.1441053 13.05765213 65.1441053 13.05765213 63.87638855 13.1882019 C51.23680842 14.43170871 38.55457285 15.1774257 25.88165283 15.99157715 C22.38771731 16.21687266 18.89406892 16.44653743 15.40039062 16.67578125 C8.60052786 17.12134637 1.80037027 17.56225039 -5 18 C-4.25536046 14.22407033 -3.42054468 10.48741138 -2.5 6.75 C-2.2421875 5.69296875 -1.984375 4.6359375 -1.71875 3.546875 C-1 1 -1 1 0 0 Z " fill="#05D0E8" transform="translate(242,283)"/>
<path d="M0 0 C15.10307932 -0.56557995 15.10307932 -0.56557995 21 3 C22.44430855 5.88861709 22.37688506 7.79647701 22 11 C19.5 13.875 19.5 13.875 17 16 C17.9590625 16.7425 17.9590625 16.7425 18.9375 17.5 C21.81515269 20.98806387 21.70230736 23.53461041 22 28 C24.94727535 27.89830839 24.94727535 27.89830839 28 27 C29.45291273 24.53744315 29.45291273 24.53744315 30 22 C31 25 31 25 31 28 C31.66 28.66 32.32 29.32 33 30 C30.70858714 30.05384521 28.41681812 30.09272087 26.125 30.125 C24.84882813 30.14820313 23.57265625 30.17140625 22.2578125 30.1953125 C19 30 19 30 17 28 C16.3671875 25.6171875 16.3671875 25.6171875 15.875 22.875 C15.70742187 21.96492188 15.53984375 21.05484375 15.3671875 20.1171875 C15.24601563 19.41851562 15.12484375 18.71984375 15 18 C12.69 17.34 10.38 16.68 8 16 C8 20.29 8 24.58 8 29 C8.99 29.33 9.98 29.66 11 30 C7.37 30 3.74 30 0 30 C1.32 29.67 2.64 29.34 4 29 C4 20.09 4 11.18 4 2 C2.68 2 1.36 2 0 2 C0 1.34 0 0.68 0 0 Z " fill="#393939" transform="translate(199,336)"/>
<path d="M0 0 C7.26 0 14.52 0 22 0 C22 2.97 22 5.94 22 9 C20 7 20 7 19 2 C15.37 2 11.74 2 8 2 C8 5.96 8 9.92 8 14 C9.65 14 11.3 14 13 14 C13.33 12.68 13.66 11.36 14 10 C14.33 10 14.66 10 15 10 C15 13.63 15 17.26 15 21 C13 18 13 18 13 16 C11.35 16 9.7 16 8 16 C8 20.29 8 24.58 8 29 C11.63 28.67 15.26 28.34 19 28 C19.99 25.69 20.98 23.38 22 21 C22.33 21 22.66 21 23 21 C23 23.97 23 26.94 23 30 C15.41 30 7.82 30 0 30 C0.99 29.67 1.98 29.34 3 29 C3 20.09 3 11.18 3 2 C2.01 1.67 1.02 1.34 0 1 C0 0.67 0 0.34 0 0 Z " fill="#151515" transform="translate(278,336)"/>
<path d="M0 0 C8.25 0 16.5 0 25 0 C25 2.97 25 5.94 25 9 C24.34 9 23.68 9 23 9 C22.34 7.02 21.68 5.04 21 3 C18.03 2.505 18.03 2.505 15 2 C15 10.91 15 19.82 15 29 C15.99 29.33 16.98 29.66 18 30 C14.37 30 10.74 30 7 30 C7.99 29.67 8.98 29.34 10 29 C10 20.09 10 11.18 10 2 C8.02 2 6.04 2 4 2 C3.34 4.31 2.68 6.62 2 9 C1.34 9 0.68 9 0 9 C0 6.03 0 3.06 0 0 Z " fill="#626262" transform="translate(172,336)"/>
<path d="M0 0 C2.47431724 2.47431724 2.97516271 4.48860491 4.05859375 7.8125 C4.44466797 8.97007812 4.83074219 10.12765625 5.22851562 11.3203125 C6.03412545 13.77228166 6.83621376 16.22541065 7.63476562 18.6796875 C8.02212891 19.83726562 8.40949219 20.99484375 8.80859375 22.1875 C9.15720459 23.25355469 9.50581543 24.31960938 9.86499023 25.41796875 C10.85069146 28.2893671 10.85069146 28.2893671 14 30 C10.37 30 6.74 30 3 30 C3.99 29.67 4.98 29.34 6 29 C5.01 26.36 4.02 23.72 3 21 C-0.3 20.67 -3.6 20.34 -7 20 C-7.33 20.66 -7.66 21.32 -8 22 C-7.37910554 17.00956079 -5.90498961 12.79272252 -4 8.1875 C-3.72671875 7.50751953 -3.4534375 6.82753906 -3.171875 6.12695312 C-1.14553571 1.14553571 -1.14553571 1.14553571 0 0 Z " fill="#1B1B1B" transform="translate(238,336)"/>
<path d="M0 0 C1.8272911 2.74093665 2.93698178 5.13825324 4.125 8.1875 C4.47820312 9.08855469 4.83140625 9.98960938 5.1953125 10.91796875 C5.46085937 11.60503906 5.72640625 12.29210937 6 13 C8.0245738 11.06745228 9.42105792 9.36841312 11 7 C10.27246734 10.80718548 9.38723428 14.55485569 8.4375 18.3125 C8.16808594 19.38113281 7.89867187 20.44976562 7.62109375 21.55078125 C7.41613281 22.35902344 7.21117187 23.16726562 7 24 C6.01 24 5.02 24 4 24 C3.67 22.68 3.34 21.36 3 20 C2.67 21.98 2.34 23.96 2 26 C-0.50298434 23.06171403 -1.46930939 20.82097239 -2 17 C-3.65 16.67 -5.3 16.34 -7 16 C-7.33 16.66 -7.66 17.32 -8 18 C-8 17.01 -8 16.02 -8 15 C-8.66 15 -9.32 15 -10 15 C-10.4125 14.13375 -10.825 13.2675 -11.25 12.375 C-12.97832149 9.04180856 -14.87076408 6.08372099 -17 3 C-12.12114941 3.41818719 -10.22040297 5.44929929 -7 9 C-6.278125 9.70125 -5.55625 10.4025 -4.8125 11.125 C-3 13 -3 13 -1 16 C-0.30840599 14.15274948 -0.30840599 14.15274948 0 12 C-0.66 11.01 -1.32 10.02 -2 9 C-1.46808511 2.93617021 -1.46808511 2.93617021 0 0 Z " fill="#346F37" transform="translate(238,105)"/>
<path d="M0 0 C10.24745834 -0.14130816 20.41624424 0.22737001 30.64453125 0.79956055 C33.15597245 0.93922239 35.66776337 1.07051484 38.1796875 1.20117188 C39.78908939 1.28856876 41.39846553 1.37644143 43.0078125 1.46484375 C44.1249614 1.52272316 44.1249614 1.52272316 45.26467896 1.58177185 C48.61182562 1.77417254 51.78700961 2.00097224 55 3 C55 3.66 55 4.32 55 5 C50.98432025 5.29120455 46.96821814 5.57565676 42.95166016 5.85449219 C40.93237828 5.99597961 38.91344737 6.14244838 36.89453125 6.2890625 C28.23582141 6.8862149 19.67710741 7.12180771 11 7 C11 6.67 11 6.34 11 6 C16.94 5.505 16.94 5.505 23 5 C15.08 4.34 7.16 3.68 -1 3 C-0.67 2.01 -0.34 1.02 0 0 Z " fill="#07E4F1" transform="translate(234,304)"/>
<path d="M0 0 C0.99 0.33 1.98 0.66 3 1 C2.505 1.928125 2.01 2.85625 1.5 3.8125 C-0.21289852 6.86527516 -0.21289852 6.86527516 0 10 C0.64839844 9.81050781 1.29679688 9.62101563 1.96484375 9.42578125 C6.02619965 8.85604149 9.5503423 9.47461018 13.5625 10.1875 C14.31724609 10.30158203 15.07199219 10.41566406 15.84960938 10.53320312 C20.42103021 11.32665679 23.0204047 12.1826405 26 16 C21.29254513 16.67249355 16.8599167 17.03330258 12.09375 16.9765625 C8.39763653 17.0179369 4.60731332 17.16329275 1 18 C0.67 18.66 0.34 19.32 0 20 C0 19.01 0 18.02 0 17 C0.99 16.67 1.98 16.34 3 16 C2.0409375 15.8453125 2.0409375 15.8453125 1.0625 15.6875 C0.381875 15.460625 -0.29875 15.23375 -1 15 C-1.33 14.01 -1.66 13.02 -2 12 C-2.66 11.34 -3.32 10.68 -4 10 C-3.67 9.34 -3.34 8.68 -3 8 C-3.66 7.67 -4.32 7.34 -5 7 C-3.39911152 4.59866729 -1.74271938 2.297221 0 0 Z " fill="#457B48" transform="translate(253,124)"/>
<path d="M0 0 C1.32 0 2.64 0 4 0 C4 9.24 4 18.48 4 28 C7.63 27.67 11.26 27.34 15 27 C15.99 24.69 16.98 22.38 18 20 C18.33 20 18.66 20 19 20 C19 22.97 19 25.94 19 29 C11.74 29 4.48 29 -3 29 C-2.01 28.67 -1.02 28.34 0 28 C0 18.76 0 9.52 0 0 Z " fill="#080808" transform="translate(308,337)"/>
<path d="M0 0 C3.63 0 7.26 0 11 0 C11 0.66 11 1.32 11 2 C10.01 2 9.02 2 8 2 C9.14154614 4.98082734 10.28895118 7.9593646 11.4375 10.9375 C11.76298828 11.78763672 12.08847656 12.63777344 12.42382812 13.51367188 C12.73642578 14.32255859 13.04902344 15.13144531 13.37109375 15.96484375 C13.65911865 16.7137085 13.94714355 17.46257324 14.24389648 18.23413086 C14.86639115 19.99029133 14.86639115 19.99029133 16 21 C16.66 20.34 17.32 19.68 18 19 C17.44894091 22.9492568 16.61064629 26.34920174 15 30 C14.34 30 13.68 30 13 30 C11.49223384 25.89864435 9.99512424 21.79347933 8.5 17.6875 C8.07074219 16.52025391 7.64148438 15.35300781 7.19921875 14.15039062 C6.79316406 13.03212891 6.38710938 11.91386719 5.96875 10.76171875 C5.59169922 9.73006592 5.21464844 8.69841309 4.82617188 7.63549805 C4 5 4 5 4 2 C2.68 2 1.36 2 0 2 C0 1.34 0 0.68 0 0 Z " fill="#1E1E1E" transform="translate(250,336)"/>
<path d="M0 0 C4.21668383 1.75032159 6.90092883 3.67956661 10 7 C10.66 7.33 11.32 7.66 12 8 C11.01 9.32 10.02 10.64 9 12 C5.04 10.68 1.08 9.36 -3 8 C-3 7.34 -3 6.68 -3 6 C-4.1446875 5.5978125 -4.1446875 5.5978125 -5.3125 5.1875 C-7.88988618 4.04865495 -9.26954864 3.18583329 -11 1 C-11 0.34 -11 -0.32 -11 -1 C-7.46825956 -2.76587022 -3.65822237 -1.04873154 0 0 Z " fill="#417945" transform="translate(223,123)"/>
<path d="M0 0 C6 0 6 0 8.375 1.625 C10.48706506 4.71186432 10.61195145 6.3282913 10 10 C8.375 12.375 8.375 12.375 6 14 C4.02 14 2.04 14 0 14 C0 9.38 0 4.76 0 0 Z " fill="#BFBFBF" transform="translate(258,379)"/>
<path d="M0 0 C6 0 6 0 8.375 1.625 C10.48706506 4.71186432 10.61195145 6.3282913 10 10 C8.375 12.375 8.375 12.375 6 14 C4.02 14 2.04 14 0 14 C0 9.38 0 4.76 0 0 Z " fill="#BFBFBF" transform="translate(244,379)"/>
<path d="M0 0 C1.24716797 0.02030273 1.24716797 0.02030273 2.51953125 0.04101562 C4.55497066 0.07610941 6.59007291 0.12990772 8.625 0.1875 C8.955 0.8475 9.285 1.5075 9.625 2.1875 C8.29166667 2.85416667 6.95833333 3.52083333 5.625 4.1875 C5.05265625 4.52910156 4.4803125 4.87070313 3.890625 5.22265625 C0.93608504 6.48088275 -1.67483391 6.57751398 -4.875 6.75 C-8.50415605 6.95393193 -11.88157324 7.15145922 -15.375 8.1875 C-15.375 6.5375 -15.375 4.8875 -15.375 3.1875 C-10.10776905 -0.05977345 -5.97550061 -0.18584093 0 0 Z " fill="#357038" transform="translate(220.375,135.8125)"/>
<path d="M0 0 C1.32 0 2.64 0 4 0 C4.79822348 9.37912587 5.12873737 18.58786748 5 28 C5.99 28.33 6.98 28.66 8 29 C4.37 29 0.74 29 -3 29 C-1.68 28.67 -0.36 28.34 1 28 C0.67 18.76 0.34 9.52 0 0 Z " fill="#0A0A0A" transform="translate(202,337)"/>
<path d="M0 0 C3.3984375 -0.62109375 3.3984375 -0.62109375 7.375 -0.4375 C8.07238281 -0.41300781 8.76976562 -0.38851563 9.48828125 -0.36328125 C11.66222858 -0.2767951 13.82917317 -0.14416792 16 0 C16.69770508 0.04108887 17.39541016 0.08217773 18.11425781 0.12451172 C22.08154719 0.35982736 26.04094738 0.6535829 30 1 C30 1.33 30 1.66 30 2 C25.05 2.66 20.1 3.32 15 4 C15 4.33 15 4.66 15 5 C5.595 5.495 5.595 5.495 -4 6 C-2.68 4.02 -1.36 2.04 0 0 Z " fill="#C6FBFB" transform="translate(232,307)"/>
<path d="M0 0 C3.375 -0.125 3.375 -0.125 7 0 C9 2 9 2 9.3125 5.9375 C9.2339218 8.48435809 9.13665953 9.75704973 7.875 12 C6 13 6 13 0 13 C0 8.71 0 4.42 0 0 Z " fill="#F9F9F9" transform="translate(207,338)"/>
<path d="M0 0 C7.26 0 14.52 0 22 0 C22 2.97 22 5.94 22 9 C20 7 20 7 19 2 C15.37 2 11.74 2 8 2 C8 5.96 8 9.92 8 14 C9.65 14 11.3 14 13 14 C13.33 12.68 13.66 11.36 14 10 C14.33 10 14.66 10 15 10 C15 13.63 15 17.26 15 21 C13 18 13 18 13 16 C11.35 16 9.7 16 8 16 C8 20.29 8 24.58 8 29 C7.67 29 7.34 29 7 29 C7 19.76 7 10.52 7 1 C5.02 1.33 3.04 1.66 1 2 C0.67 1.34 0.34 0.68 0 0 Z " fill="#878787" transform="translate(278,336)"/>
<path d="M0 0 C1.98 0 3.96 0 6 0 C8 2 8 2 8.23046875 4.56640625 C8.20919922 6.04947266 8.20919922 6.04947266 8.1875 7.5625 C8.17783203 9.04943359 8.17783203 9.04943359 8.16796875 10.56640625 C8 13 8 13 7 14 C4.69 14 2.38 14 0 14 C0 9.38 0 4.76 0 0 Z " fill="#6B6B6B" transform="translate(218,379)"/>
<path d="M0 0 C4.87885059 0.41818719 6.77959703 2.44929929 10 6 C10.721875 6.70125 11.44375 7.4025 12.1875 8.125 C14 10 14 10 16 13 C16.66 12.67 17.32 12.34 18 12 C18.87867729 15.73437848 19.08912219 19.16774573 19 23 C16.49701566 20.06171403 15.53069061 17.82097239 15 14 C13.35 13.67 11.7 13.34 10 13 C9.67 13.66 9.34 14.32 9 15 C9 14.01 9 13.02 9 12 C8.34 12 7.68 12 7 12 C6.5875 11.13375 6.175 10.2675 5.75 9.375 C4.02167851 6.04180856 2.12923592 3.08372099 0 0 Z " fill="#5F8E62" transform="translate(221,108)"/>
<path d="M0 0 C1.32 0.33 2.64 0.66 4 1 C3.34 2.32 2.68 3.64 2 5 C2.66 5.33 3.32 5.66 4 6 C4 10.03416942 2.3460866 12.82941012 0 16 C-2.75 17.9375 -2.75 17.9375 -5 19 C-6 16 -6 16 -5.00390625 13.73828125 C-4.52824219 12.93777344 -4.05257812 12.13726562 -3.5625 11.3125 C-3.08941406 10.50425781 -2.61632812 9.69601563 -2.12890625 8.86328125 C-1.75636719 8.24839844 -1.38382813 7.63351563 -1 7 C-1.33 6.67 -1.66 6.34 -2 6 C-4.31 6.66 -6.62 7.32 -9 8 C-7.12050295 4.42895561 -5.82946843 2.45255699 -2 1 C-1.67 1.33 -1.34 1.66 -1 2 C-0.67 1.34 -0.34 0.68 0 0 Z " fill="#637727" transform="translate(234,186)"/>
<path d="M0 0 C0.99 0 1.98 0 3 0 C3 9.24 3 18.48 3 28 C4.32 28.33 5.64 28.66 7 29 C3.37 29 -0.26 29 -4 29 C-2.68 28.67 -1.36 28.34 0 28 C0 18.76 0 9.52 0 0 Z " fill="#010101" transform="translate(183,337)"/>
<path d="M0 0 C1.134375 0.020625 2.26875 0.04125 3.4375 0.0625 C3.1075 1.3825 2.7775 2.7025 2.4375 4.0625 C1.7775 4.0625 1.1175 4.0625 0.4375 4.0625 C0.1075 5.3825 -0.2225 6.7025 -0.5625 8.0625 C-1.5525 8.0625 -2.5425 8.0625 -3.5625 8.0625 C-3.5625 8.7225 -3.5625 9.3825 -3.5625 10.0625 C-4.2225 10.0625 -4.8825 10.0625 -5.5625 10.0625 C-5.5625 10.7225 -5.5625 11.3825 -5.5625 12.0625 C-4.9025 12.3925 -4.2425 12.7225 -3.5625 13.0625 C-6.2025 15.3725 -8.8425 17.6825 -11.5625 20.0625 C-11.8925 19.4025 -12.2225 18.7425 -12.5625 18.0625 C-11.95751953 16.29077148 -11.95751953 16.29077148 -10.9453125 14.18359375 C-10.40583984 13.04954102 -10.40583984 13.04954102 -9.85546875 11.89257812 C-9.47003906 11.10302734 -9.08460938 10.31347656 -8.6875 9.5 C-8.30980469 8.70658203 -7.93210938 7.91316406 -7.54296875 7.09570312 C-4.17264911 0.07320437 -4.17264911 0.07320437 0 0 Z " fill="#E9EFE9" transform="translate(223.5625,178.9375)"/>
<path d="M0 0 C-1.65 0.33 -3.3 0.66 -5 1 C-5.66 3.31 -6.32 5.62 -7 8 C-7.66 8 -8.32 8 -9 8 C-8.67 10.31 -8.34 12.62 -8 15 C-9.216875 15.433125 -10.43375 15.86625 -11.6875 16.3125 C-15.03739367 17.56201629 -17.99997817 19.03123567 -21 21 C-19.92598892 18.08482708 -19.22189824 16.22189824 -17 14 C-14.81509993 11.32357511 -14.81509993 11.32357511 -15 9 C-14.34 9 -13.68 9 -13 9 C-13 8.34 -13 7.68 -13 7 C-12.01 7 -11.02 7 -10 7 C-9.87625 6.360625 -9.7525 5.72125 -9.625 5.0625 C-9.41875 4.381875 -9.2125 3.70125 -9 3 C-8.34 2.67 -7.68 2.34 -7 2 C-7.33 1.34 -7.66 0.68 -8 0 C-4.94736336 -0.98120464 -3.05263664 -0.98120464 0 0 Z " fill="#366C2E" transform="translate(233,180)"/>
<path d="M0 0 C1.65 0 3.3 0 5 0 C5.33 2.31 5.66 4.62 6 7 C6.66 6.67 7.32 6.34 8 6 C8.33 8.31 8.66 10.62 9 13 C8.34 13 7.68 13 7 13 C6.67 12.01 6.34 11.02 6 10 C5.814375 11.9490625 5.814375 11.9490625 5.625 13.9375 C5.4140625 16.15234375 5.4140625 16.15234375 5 18 C4.34 18.33 3.68 18.66 3 19 C3 17.35 3 15.7 3 14 C2.34 14 1.68 14 1 14 C0.63495397 12.41913952 0.28339494 10.83516093 -0.0625 9.25 C-0.25972656 8.36828125 -0.45695313 7.4865625 -0.66015625 6.578125 C-0.99825872 4.01320972 -0.81158635 2.42908361 0 0 Z " fill="#7F822B" transform="translate(242,187)"/>
<path d="M0 0 C1.921875 0.359375 1.921875 0.359375 4 1 C5.87679987 4.37823976 6.21849583 7.17632299 6 11 C8.94727535 10.89830839 8.94727535 10.89830839 12 10 C13.45291273 7.53744315 13.45291273 7.53744315 14 5 C15 8 15 8 15 11 C15.66 11.66 16.32 12.32 17 13 C14.70858714 13.05384521 12.41681812 13.09272087 10.125 13.125 C8.21074219 13.15980469 8.21074219 13.15980469 6.2578125 13.1953125 C3 13 3 13 1 11 C0.5859375 8.3984375 0.5859375 8.3984375 0.375 5.375 C0.30023438 4.37210937 0.22546875 3.36921875 0.1484375 2.3359375 C0.09945312 1.56507813 0.05046875 0.79421875 0 0 Z " fill="#191919" transform="translate(215,353)"/>
<path d="M0 0 C1.22156872 3.66470616 0.62833432 4.63237688 -0.8125 8.125 C-1.16957031 9.01445312 -1.52664062 9.90390625 -1.89453125 10.8203125 C-3 13 -3 13 -5 14 C-6.99960012 14.039992 -9.00047242 14.04346799 -11 14 C-9.42219077 10.28954753 -7.09296752 7.70093616 -4.375 4.75 C-3.55773437 3.85796875 -2.74046875 2.9659375 -1.8984375 2.046875 C-1.27195313 1.37140625 -0.64546875 0.6959375 0 0 Z " fill="#EAF0EA" transform="translate(201,211)"/>
<path d="M0 0 C4.24994263 -0.05805933 8.49978324 -0.09361654 12.75 -0.125 C13.9565625 -0.14175781 15.163125 -0.15851563 16.40625 -0.17578125 C17.56640625 -0.18222656 18.7265625 -0.18867188 19.921875 -0.1953125 C20.99018555 -0.20578613 22.05849609 -0.21625977 23.15917969 -0.22705078 C25.97979105 -0.00161519 27.60787463 0.54151006 30 2 C25.56356692 2.25441431 21.12608551 2.4742144 16.6875 2.6875 C15.42486328 2.76033203 14.16222656 2.83316406 12.86132812 2.90820312 C11.04858398 2.99038086 11.04858398 2.99038086 9.19921875 3.07421875 C8.08377686 3.13182373 6.96833496 3.18942871 5.8190918 3.2487793 C3 3 3 3 1.11254883 1.49536133 C0.74540771 1.00189209 0.3782666 0.50842285 0 0 Z " fill="#A6ECF4" transform="translate(220,234)"/>
<path d="M0 0 C0.33 0.99 0.66 1.98 1 3 C0.01 4.485 0.01 4.485 -1 6 C-1.33 6.66 -1.66 7.32 -2 8 C-2.66 7.67 -3.32 7.34 -4 7 C-4.33 7.99 -4.66 8.98 -5 10 C-5.66 10 -6.32 10 -7 10 C-7.7425 11.2375 -7.7425 11.2375 -8.5 12.5 C-9.2425 13.7375 -9.2425 13.7375 -10 15 C-10.66 15 -11.32 15 -12 15 C-12.33 15.99 -12.66 16.98 -13 18 C-13.6875 16.2421875 -13.6875 16.2421875 -14 14 C-12.8125 12.0703125 -12.8125 12.0703125 -11 10.125 C-10.35933594 9.43664062 -9.71867188 8.74828125 -9.05859375 8.0390625 C-6.16873985 5.17662657 -3.1508884 2.5721538 0 0 Z " fill="#3B743E" transform="translate(216,148)"/>
<path d="M0 0 C2.34914492 2.34914492 2.73140357 3.95679446 3.625 7.125 C3.88539063 8.03507812 4.14578125 8.94515625 4.4140625 9.8828125 C4.70410156 10.93082031 4.70410156 10.93082031 5 12 C2.03 12 -0.94 12 -4 12 C-3.52309796 10.37433394 -3.04340334 8.74948689 -2.5625 7.125 C-2.29566406 6.22007812 -2.02882812 5.31515625 -1.75390625 4.3828125 C-1 2 -1 2 0 0 Z " fill="#F2F2F2" transform="translate(236,343)"/>
<path d="M0 0 C0.66 0 1.32 0 2 0 C2.45375 1.134375 2.9075 2.26875 3.375 3.4375 C4.57095806 7.04721692 4.57095806 7.04721692 7 8 C7.33 7.34 7.66 6.68 8 6 C8.28875 6.969375 8.5775 7.93875 8.875 8.9375 C9.64214682 12.10664203 9.64214682 12.10664203 12 13 C12 13.66 12 14.32 12 15 C11.34 15 10.68 15 10 15 C9.67 15.66 9.34 16.32 9 17 C7.29964638 14.73784237 5.61484079 12.46661767 3.9375 10.1875 C3.20950195 9.22360352 3.20950195 9.22360352 2.46679688 8.24023438 C1.23128373 6.54907099 0.10723982 4.77779254 -1 3 C-0.67 2.01 -0.34 1.02 0 0 Z " fill="#9A9C6B" transform="translate(251,149)"/>
<path d="M0 0 C7.26 0 14.52 0 22 0 C22 2.97 22 5.94 22 9 C20 7 20 7 19 2 C13.06 2 7.12 2 1 2 C0.67 1.34 0.34 0.68 0 0 Z " fill="#7A7A7A" transform="translate(278,336)"/>
<path d="M0 0 C0.99 0.33 1.98 0.66 3 1 C2.505 1.928125 2.01 2.85625 1.5 3.8125 C-0.21289852 6.86527516 -0.21289852 6.86527516 0 10 C1.65 9.67 3.3 9.34 5 9 C5.33 9.66 5.66 10.32 6 11 C4.35 11.33 2.7 11.66 1 12 C1 12.66 1 13.32 1 14 C1.66 14.33 2.32 14.66 3 15 C1.68 15 0.36 15 -1 15 C-1.33 14.01 -1.66 13.02 -2 12 C-2.66 11.34 -3.32 10.68 -4 10 C-3.67 9.34 -3.34 8.68 -3 8 C-3.66 7.67 -4.32 7.34 -5 7 C-3.39911152 4.59866729 -1.74271938 2.297221 0 0 Z " fill="#5C8C5F" transform="translate(253,124)"/>
<path d="M0 0 C0.66 0 1.32 0 2 0 C2 0.99 2 1.98 2 3 C2.66 3 3.32 3 4 3 C3.67 5.64 3.34 8.28 3 11 C1.35 11 -0.3 11 -2 11 C-2 10.01 -2 9.02 -2 8 C-2.66 8 -3.32 8 -4 8 C-4 7.01 -4 6.02 -4 5 C-3.01 5 -2.02 5 -1 5 C-0.67 3.35 -0.34 1.7 0 0 Z " fill="#6C956A" transform="translate(249,157)"/>
<path d="M0 0 C0.33 0 0.66 0 1 0 C1 1.98 1 3.96 1 6 C-0.32 6 -1.64 6 -3 6 C-3 6.66 -3 7.32 -3 8 C-5.25 10.6875 -5.25 10.6875 -8 13 C-10.3125 12.8125 -10.3125 12.8125 -12 12 C-11.67 11.01 -11.34 10.02 -11 9 C-11 9.66 -11 10.32 -11 11 C-10.34 10.67 -9.68 10.34 -9 10 C-9 9.01 -9 8.02 -9 7 C-8.34 6.67 -7.68 6.34 -7 6 C-6.34 6.33 -5.68 6.66 -5 7 C-5.33 5.68 -5.66 4.36 -6 3 C-5.195625 2.87625 -4.39125 2.7525 -3.5625 2.625 C-2.716875 2.41875 -1.87125 2.2125 -1 2 C-0.67 1.34 -0.34 0.68 0 0 Z " fill="#787428" transform="translate(259,165)"/>
<path d="M0 0 C2.375 0.25 2.375 0.25 5 1 C6.3125 3.0625 6.3125 3.0625 7 5 C7.33 5 7.66 5 8 5 C8 6.65 8 8.3 8 10 C8.66 10 9.32 10 10 10 C9.67 10.99 9.34 11.98 9 13 C8.67 12.67 8.34 12.34 8 12 C7.34 12.66 6.68 13.32 6 14 C5.7525 13.13375 5.505 12.2675 5.25 11.375 C3.93300445 7.81911201 2.12734288 5.12010289 0 2 C0 1.34 0 0.68 0 0 Z " fill="#538556" transform="translate(231,121)"/>
<path d="M0 0 C0.625 1.75 0.625 1.75 1 4 C0.34241884 5.33783753 -0.32563747 6.67054244 -1 8 C-1.42151885 9.57158878 -1.7968834 11.15629082 -2.125 12.75 C-2.37636719 13.94882813 -2.37636719 13.94882813 -2.6328125 15.171875 C-2.75398437 15.77515625 -2.87515625 16.3784375 -3 17 C-3.99 17 -4.98 17 -6 17 C-6.33 14.03 -6.66 11.06 -7 8 C-5.68 7.34 -4.36 6.68 -3 6 C-1.23272142 2.9665533 -1.23272142 2.9665533 0 0 Z " fill="#6D9870" transform="translate(248,112)"/>
<path d="M0 0 C-1.65 0.33 -3.3 0.66 -5 1 C-5.66 3.31 -6.32 5.62 -7 8 C-7.66 8 -8.32 8 -9 8 C-9 8.66 -9 9.32 -9 10 C-10.875 11.0625 -10.875 11.0625 -13 12 C-13.66 11.67 -14.32 11.34 -15 11 C-15 10.34 -15 9.68 -15 9 C-14.34 9 -13.68 9 -13 9 C-13 8.34 -13 7.68 -13 7 C-12.01 7 -11.02 7 -10 7 C-9.814375 6.0409375 -9.814375 6.0409375 -9.625 5.0625 C-9.41875 4.381875 -9.2125 3.70125 -9 3 C-8.34 2.67 -7.68 2.34 -7 2 C-7.33 1.34 -7.66 0.68 -8 0 C-4.94736336 -0.98120464 -3.05263664 -0.98120464 0 0 Z " fill="#6B956B" transform="translate(233,180)"/>
<path d="M0 0 C1.11375 0.3403125 1.11375 0.3403125 2.25 0.6875 C2.58 1.6775 2.91 2.6675 3.25 3.6875 C4.24 4.0175 5.23 4.3475 6.25 4.6875 C5.26 5.3475 4.27 6.0075 3.25 6.6875 C0.76953125 6.0078125 0.76953125 6.0078125 -1.9375 4.8125 C-2.83855469 4.42320312 -3.73960937 4.03390625 -4.66796875 3.6328125 C-5.35503906 3.32085937 -6.04210937 3.00890625 -6.75 2.6875 C-3.09375 -0.3515625 -3.09375 -0.3515625 0 0 Z " fill="#4D6E24" transform="translate(261.75,181.3125)"/>
<path d="M0 0 C1.22589844 0.29197266 1.22589844 0.29197266 2.4765625 0.58984375 C3.41628906 0.82380859 3.41628906 0.82380859 4.375 1.0625 C4.375 1.7225 4.375 2.3825 4.375 3.0625 C2.16612053 4.40360539 0.92030581 5.12859767 -1.6875 4.8125 C-3.625 4.0625 -3.625 4.0625 -6.625 2.0625 C-6.625 1.4025 -6.625 0.7425 -6.625 0.0625 C-3.99249612 -1.25375194 -2.82320944 -0.68563658 0 0 Z " fill="#4F8352" transform="translate(218.625,121.9375)"/>
<path d="M0 0 C3.44216672 2.6598561 3.99504674 5.90288286 5 10 C4.34 10.66 3.68 11.32 3 12 C1.5 10.6875 1.5 10.6875 0 9 C0 8.01 0 7.02 0 6 C-0.99 5.67 -1.98 5.34 -3 5 C-2.01 3.35 -1.02 1.7 0 0 Z " fill="#5B7B42" transform="translate(263,156)"/>
<path d="M0 0 C0.75 1.6875 0.75 1.6875 1 4 C-1.13381449 7.2769294 -2.25018012 8.75006004 -6 10 C-7 7 -7 7 -5.6875 3.875 C-3.41304348 0 -3.41304348 0 0 0 Z " fill="#446C24" transform="translate(235,195)"/>
<path d="M0 0 C0 0.33 0 0.66 0 1 C-1.65 1 -3.3 1 -5 1 C-5 1.66 -5 2.32 -5 3 C-9.95 3 -14.9 3 -20 3 C-20.33 2.34 -20.66 1.68 -21 1 C-13.98441385 0.4011085 -7.04321257 -0.13810221 0 0 Z " fill="#B5F5FA" transform="translate(266,282)"/>
<path d="M0 0 C3.5 1.25 3.5 1.25 5.5 4.25 C-1.97091243 5.59721372 -1.97091243 5.59721372 -4.5 3.9375 C-5.5 2.25 -5.5 2.25 -5.5 0.25 C-3.5 -0.75 -3.5 -0.75 0 0 Z " fill="#608E63" transform="translate(273.5,135.75)"/>
<path d="M0 0 C0.33 0 0.66 0 1 0 C1 2.97 1 5.94 1 9 C-3.95 9 -8.9 9 -14 9 C-14 8.67 -14 8.34 -14 8 C-8.555 7.505 -8.555 7.505 -3 7 C-2.01 4.69 -1.02 2.38 0 0 Z " fill="#161616" transform="translate(326,357)"/>
<path d="M0 0 C0 0.33 0 0.66 0 1 C-2.31 1 -4.62 1 -7 1 C-7 1.66 -7 2.32 -7 3 C-9.02392288 5.42870746 -11.13302508 6.71480435 -14 8 C-14 6.35 -14 4.7 -14 3 C-8.99067246 -0.00559652 -5.67276511 -0.29341888 0 0 Z " fill="#558758" transform="translate(219,136)"/>
<path d="M0 0 C0.66 1.32 1.32 2.64 2 4 C-0.8125 5.5625 -0.8125 5.5625 -4 7 C-4.99 6.67 -5.98 6.34 -7 6 C-6.34 4.68 -5.68 3.36 -5 2 C-4.34 2 -3.68 2 -3 2 C-2.01 1.34 -1.02 0.68 0 0 Z " fill="#67936A" transform="translate(231,146)"/>
<path d="M0 0 C1.65 0 3.3 0 5 0 C5.5625 1.9375 5.5625 1.9375 6 4 C5 5 5 5 2.4375 5.0625 C1.2309375 5.0315625 1.2309375 5.0315625 0 5 C0 3.35 0 1.7 0 0 Z " fill="#F1F1F1" transform="translate(219,387)"/>
<path d="M0 0 C1.98 1.65 3.96 3.3 6 5 C4 5.66666667 2 6.33333333 0 7 C-0.66 6.34 -1.32 5.68 -2 5 C-2 3.68 -2 2.36 -2 1 C-1.34 0.67 -0.68 0.34 0 0 Z " fill="#7DA37F" transform="translate(232,165)"/>
<path d="M0 0 C0.33 0 0.66 0 1 0 C1.33692785 1.60341555 1.66941093 3.20776555 2 4.8125 C2.185625 5.70582031 2.37125 6.59914063 2.5625 7.51953125 C3 10 3 10 3 13 C1.68 12.67 0.36 12.34 -1 12 C-0.67 10.02 -0.34 8.04 0 6 C-0.66 6 -1.32 6 -2 6 C-2 5.34 -2 4.68 -2 4 C-1.34 4 -0.68 4 0 4 C0 2.68 0 1.36 0 0 Z " fill="#A2BDA3" transform="translate(253,106)"/>
<path d="M0 0 C0.33 0.99 0.66 1.98 1 3 C-0.43554025 3.50559908 -1.8735202 4.0042749 -3.3125 4.5 C-4.51326172 4.91765625 -4.51326172 4.91765625 -5.73828125 5.34375 C-8 6 -8 6 -11 6 C-8.24029211 2.78034079 -4.3526723 0 0 0 Z " fill="#447B48" transform="translate(216,177)"/>
<path d="M0 0 C2.475 0.495 2.475 0.495 5 1 C5 2.32 5 3.64 5 5 C3.35 5 1.7 5 0 5 C0 3.35 0 1.7 0 0 Z " fill="#EEEEEE" transform="translate(219,380)"/>
<path d="M0 0 C1.99097846 2.98646769 2.94124926 5.59687262 4 9 C3.34 9.66 2.68 10.32 2 11 C1.87625 10.360625 1.7525 9.72125 1.625 9.0625 C1.41875 8.381875 1.2125 7.70125 1 7 C0.34 6.67 -0.32 6.34 -1 6 C-1.33 6.99 -1.66 7.98 -2 9 C-1.125 2.25 -1.125 2.25 0 0 Z " fill="#719B74" transform="translate(238,105)"/>
<path d="M0 0 C0.66 0 1.32 0 2 0 C4.875 6.625 4.875 6.625 6 10 C1.95351557 8.65117186 1.04497401 6.65173931 -1 3 C-0.67 2.01 -0.34 1.02 0 0 Z " fill="#A0BCA2" transform="translate(251,149)"/>
<path d="M0 0 C0.99 0.495 0.99 0.495 2 1 C2.4140625 3.06640625 2.4140625 3.06640625 2.625 5.5625 C2.69976562 6.38878906 2.77453125 7.21507812 2.8515625 8.06640625 C2.92503906 9.02353516 2.92503906 9.02353516 3 10 C2.01 10.495 2.01 10.495 1 11 C-0.28317892 7.15046324 -0.06643637 4.05261865 0 0 Z " fill="#2C6420" transform="translate(243,188)"/>
<path d="M0 0 C0.99 0.33 1.98 0.66 3 1 C1.6875 3.5 1.6875 3.5 0 6 C-0.99 6 -1.98 6 -3 6 C-3 6.66 -3 7.32 -3 8 C-3.66 7.67 -4.32 7.34 -5 7 C-3.39911152 4.59866729 -1.74271938 2.297221 0 0 Z " fill="#79A07B" transform="translate(253,124)"/>
<path d="M0 0 C2.475 0.495 2.475 0.495 5 1 C5.66 2.98 6.32 4.96 7 7 C3.42895561 5.12050295 1.45255699 3.82946843 0 0 Z " fill="#4D8150" transform="translate(221,108)"/>
<path d="M0 0 C2.31 0 4.62 0 7 0 C7 0.66 7 1.32 7 2 C6.34 2 5.68 2 5 2 C4.34 3.32 3.68 4.64 3 6 C2.67 5.01 2.34 4.02 2 3 C1.34 2.67 0.68 2.34 0 2 C0 1.34 0 0.68 0 0 Z " fill="#454545" transform="translate(270,336)"/>
<path d="M0 0 C0.33 0.66 0.66 1.32 1 2 C1.66 2.33 2.32 2.66 3 3 C2.01 4.32 1.02 5.64 0 7 C-1.32 6.67 -2.64 6.34 -4 6 C-3.67 5.01 -3.34 4.02 -3 3 C-3 3.66 -3 4.32 -3 5 C-2.34 4.67 -1.68 4.34 -1 4 C-1 3.01 -1 2.02 -1 1 C-0.67 0.67 -0.34 0.34 0 0 Z " fill="#5B6F25" transform="translate(251,171)"/>
<path d="M0 0 C2.67927341 4.01891012 2.15601248 6.24161923 2 11 C-0.11635213 8.42357133 -1.67339287 6.37494032 -2 3 C-1.34 2.01 -0.68 1.02 0 0 Z " fill="#96B598" transform="translate(238,120)"/>
<path d="M0 0 C0.33 0 0.66 0 1 0 C1 3.63 1 7.26 1 11 C-1.62962963 7.05555556 -1.62962963 7.05555556 -2 4 C-1.0625 1.75 -1.0625 1.75 0 0 Z " fill="#121212" transform="translate(292,346)"/>
<path d="M0 0 C0.33 0.99 0.66 1.98 1 3 C0.01 4.485 0.01 4.485 -1 6 C-1.66 6 -2.32 6 -3 6 C-4.36161311 6.96113866 -5.69855198 7.95884159 -7 9 C-5.44499019 5.18315774 -2.96404505 2.80804268 0 0 Z " fill="#E2EAE2" transform="translate(201,211)"/>
<path d="M0 0 C0.33 0 0.66 0 1 0 C1.33 2.97 1.66 5.94 2 9 C0.35 8.67 -1.3 8.34 -3 8 C-2.690625 7.236875 -2.38125 6.47375 -2.0625 5.6875 C-1.32106407 3.81210323 -0.63771783 1.91315348 0 0 Z " fill="#D6E2D7" transform="translate(238,157)"/>
<path d="M0 0 C2.475 0.495 2.475 0.495 5 1 C5.33 2.98 5.66 4.96 6 7 C3.95880212 5.38405168 1.95927063 3.7143618 0 2 C0 1.34 0 0.68 0 0 Z " fill="#206124" transform="translate(231,121)"/>
<path d="M0 0 C0 0.66 0 1.32 0 2 C0.66 2.33 1.32 2.66 2 3 C-0.97 3.66 -3.94 4.32 -7 5 C-6 2 -6 2 -4.0625 0.8125 C-2 0 -2 0 0 0 Z " fill="#457B48" transform="translate(218,144)"/>
<path d="M0 0 C1 3 1 3 1 6 C1.66 6.66 2.32 7.32 3 8 C0.69 8 -1.62 8 -4 8 C-3.34 7.67 -2.68 7.34 -2 7 C-1.26924352 4.6859378 -0.59861742 2.35171131 0 0 Z " fill="#313131" transform="translate(229,358)"/>
<path d="M0 0 C0 2.64 0 5.28 0 8 C-0.99 7.67 -1.98 7.34 -3 7 C-3 5.02 -3 3.04 -3 1 C-1 0 -1 0 0 0 Z " fill="#406B23" transform="translate(253,195)"/>
<path d="M0 0 C0.99 0 1.98 0 3 0 C3 2.64 3 5.28 3 8 C0.4345406 5.4345406 0.45953913 3.52313332 0 0 Z " fill="#0C0C0C" transform="translate(297,337)"/>
<path d="M0 0 C1.65 0.33 3.3 0.66 5 1 C2.47211993 3.79872437 0.79588866 5.45773019 -3 6 C-3 4 -3 4 -1.5 2.4375 C-0.7575 1.7259375 -0.7575 1.7259375 0 1 C0 0.67 0 0.34 0 0 Z " fill="#8CAE8E" transform="translate(221,161)"/>
<path d="M0 0 C1.32 0 2.64 0 4 0 C3.67 0.99 3.34 1.98 3 3 C2.34 3 1.68 3 1 3 C0.67 3.99 0.34 4.98 0 6 C-1.125 2.25 -1.125 2.25 0 0 Z " fill="#518454" transform="translate(203,160)"/>
</svg>
